<?xml version="1.0" encoding="UTF-8"?>
<!-- Generator: Adobe Illustrator 15.1.0, SVG Export Plug-In . SVG Version: 6.00 Build 0)  -->
<!DOCTYPE svg PUBLIC "-//W3C//DTD SVG 1.1//EN" "http://www.w3.org/Graphics/SVG/1.1/DTD/svg11.dtd">
<svg version="1.1" id="Layer_1" xmlns="http://www.w3.org/2000/svg" xmlns:xlink="http://www.w3.org/1999/xlink" x="0px" y="0px" width="660px" height="126px" viewBox="0 0 660 126" style="enable-background:new 0 0 660 126;" xml:space="preserve">
<style type="text/css">
<![CDATA[
	.st0{fill:#378ACA;}
	.st1{fill:#79B5E3;}
]]>
</style>
<g>
	<path class="st1" d="M52.5,48.5h-6.8v-17h6.8v-0.9C52.5,12.8,63.7,3,80.2,3h3.6v19.2h-2.5c-6.6,0-9.7,4.5-9.7,8.5v0.9h12.1v17H71.6   v62.8H52.5V48.5L52.5,48.5z"/>
	<path class="st1" d="M92.4,31.5H110v7.2h0.3c3.7-6.9,10.8-10.5,18.4-9.8v18.6c-17.4-0.1-17.2,16.4-17.2,20.7v43.1H92.4V31.5   L92.4,31.5z"/>
	<path class="st1" d="M155.7,79.9c2.4,9.8,10.7,15.9,20.9,15.9c6.2,0,13.1-1.7,17.9-7.5H216c-10.7,25.4-35,25.7-38.8,25.7   c-28.7,0-42.2-23.6-42.2-41.9c0-18.3,13.7-43.1,42.5-43.1c24.4,0,41.1,18.7,41.1,42.5c0,2.9,0,5.6-0.4,8.5H155.7L155.7,79.9z    M198.6,62.9c-2.7-10.1-11.2-15.9-21-15.9c-10.5,0-19,6.3-22.2,15.9H198.6L198.6,62.9z"/>
	<path class="st1" d="M247.9,79.9c2.5,9.8,10.7,15.9,20.9,15.9c6.2,0,13.1-1.7,17.9-7.5h21.6c-10.7,25.4-35,25.7-38.8,25.7   c-28.7,0-42.2-23.6-42.2-41.9c0-18.3,13.7-43.1,42.5-43.1c24.4,0,41.1,18.7,41.1,42.5c0,2.9,0,5.6-0.4,8.5H247.9L247.9,79.9z    M290.8,62.9c-2.7-10.1-11.2-15.9-21-15.9c-10.5,0-19,6.3-22.2,15.9H290.8L290.8,62.9z"/>
	<path class="st0" d="M323,31.5h17.6v7.4h0.3c5.6-7.9,14.7-9.9,20.7-9.9c8.1,0,17.9,3.5,23.3,12.4c4.6-6.3,12.5-12.4,25.5-12.4   c19.4,0,32.6,13.3,32.6,35.7v46.7h-19.2V69c0-7.2-0.9-21.9-15.7-21.9c-14.7,0-15.6,14.7-15.6,21.9v42.4h-19.2V69   c0-7.2-0.9-21.9-15.7-21.9c-14.7,0-15.6,14.7-15.6,21.9v42.4H323V31.5L323,31.5z"/>
	<path class="st0" d="M538,111.3h-17.6v-10.8h-0.3c-9.2,12.7-22.5,13.4-26.7,13.4c-20.3,0-39.1-16-39.1-41.8   c0-25.1,17.6-43.2,39.6-43.2c11.4,0,20.3,4.8,26.1,13.8h0.3V31.5H538V111.3L538,111.3z M473.6,72.1c0,13.5,9.5,23.6,23.5,23.6   c13.7,0,22.9-9.9,22.9-24.5c0-13.8-9.1-24.2-22.9-24.2C483.2,47.1,473.6,57.7,473.6,72.1L473.6,72.1z"/>
	<path class="st0" d="M553.5,4.7h19.2v17.6h-19.2V4.7L553.5,4.7z M553.5,31.5h19.2v79.8h-19.2V31.5L553.5,31.5z"/>
	<polygon class="st0" points="588.1,4.7 607.3,4.7 607.3,111.3 588.1,111.3 588.1,4.7  "/>
	<polygon class="st1" points="33.2,16 33.2,0.8 0.5,0.8 0.5,125.2 33.2,125.2 33.2,110 18,110 18,16 33.2,16  "/>
	<polygon class="st1" points="626.8,110 626.8,125.2 659.5,125.2 659.5,0.8 626.8,0.8 626.8,16 642,16 642,110 626.8,110  "/>
</g>
</svg>